<svg width="204" height="32" viewBox="0 0 204 32" fill="none" xmlns="http://www.w3.org/2000/svg"><path d="M30.0664 8.98327L21.7563 0.561624C21.5837 0.383767 21.3779 0.242508 21.1509 0.146084C20.9239 0.0496598 20.6803 -1.73708e-10 20.4341 -1.73709e-10C20.188 -1.73708e-10 19.9443 0.0496598 19.7173 0.146084C19.4903 0.242508 19.2845 0.383767 19.1119 0.561624L12.1571 7.62656L0.551384 19.3847C0.376685 19.5601 0.238009 19.7688 0.143368 19.9988C0.0487281 20.2288 1.36892e-10 20.4755 1.36891e-10 20.7247C1.36892e-10 20.9738 0.0487281 21.2206 0.143368 21.4506C0.238009 21.6806 0.376685 21.8893 0.551384 22.0646L8.86478 30.4729C9.03736 30.6507 9.24315 30.792 9.47016 30.8884C9.69717 30.9848 9.94085 31.0345 10.187 31.0345C10.4331 31.0345 10.6768 30.9848 10.9038 30.8884C11.1308 30.792 11.3366 30.6507 11.5092 30.4729L21.8952 19.9307L30.0664 11.6464C30.2394 11.4718 30.3767 11.2643 30.4704 11.0358C30.564 10.8073 30.6122 10.5623 30.6122 10.3149C30.6122 10.0674 30.564 9.8224 30.4704 9.5939C30.3767 9.36539 30.2394 9.15788 30.0664 8.98327Z" fill="white"></path><path d="M29.4814 9.58277L21.1647 1.15777C20.972 0.963234 20.7111 0.854004 20.4391 0.854004C20.1671 0.854004 19.9062 0.963234 19.7136 1.15777L10.7225 10.2695L20.5036 20.1617L29.4814 11.0634C29.5779 10.9665 29.6546 10.8512 29.7069 10.7242C29.7592 10.5971 29.7861 10.4608 29.7861 10.3231C29.7861 10.1854 29.7592 10.0491 29.7069 9.92202C29.6546 9.79494 29.5779 9.67964 29.4814 9.58277ZM22.1563 12.0181C21.7625 12.4181 21.2439 12.6673 20.689 12.7232C20.1341 12.7791 19.5773 12.6382 19.1135 12.3246C18.6496 12.011 18.3074 11.5441 18.1452 11.0035C17.983 10.4628 18.0108 9.88192 18.2239 9.35973C18.437 8.83754 18.8222 8.40641 19.3139 8.13983C19.8055 7.87324 20.3732 7.7877 20.9201 7.89778C21.467 8.00786 21.9594 8.30676 22.3132 8.74351C22.667 9.18027 22.8604 9.72786 22.8604 10.2929C22.8613 10.6134 22.7996 10.9308 22.6787 11.2269C22.5579 11.5231 22.3803 11.792 22.1563 12.0181Z" fill="#E31837"></path><path d="M1.13935 19.981C0.947383 20.1763 0.8396 20.4407 0.8396 20.7163C0.8396 20.9919 0.947383 21.2563 1.13935 21.4516L9.45274 29.8766C9.54793 29.9733 9.66101 30.0501 9.78552 30.1024C9.91002 30.1548 10.0435 30.1817 10.1783 30.1817C10.3131 30.1817 10.4466 30.1548 10.5711 30.1024C10.6956 30.0501 10.8087 29.9733 10.9039 29.8766L19.8883 20.7783L10.1238 10.876L1.13935 19.981ZM8.33878 22.4063C7.94489 22.8063 7.42632 23.0555 6.87145 23.1114C6.31658 23.1672 5.75976 23.0264 5.2959 22.7128C4.83203 22.3992 4.48983 21.9323 4.32762 21.3917C4.16541 20.851 4.19323 20.2701 4.40634 19.7479C4.61945 19.2257 5.00466 18.7946 5.49632 18.528C5.98797 18.2614 6.55563 18.1759 7.10255 18.286C7.64947 18.396 8.14179 18.6949 8.49561 19.1317C8.84942 19.5684 9.04282 20.116 9.04285 20.6811C9.04323 21.0015 8.98123 21.3188 8.86042 21.6148C8.7396 21.9109 8.56234 22.1798 8.33878 22.4063ZM12.0013 19.0564C12.3952 18.6589 12.9129 18.412 13.4663 18.3579C14.0196 18.3038 14.5744 18.4458 15.036 18.7598C15.4976 19.0737 15.8376 19.5401 15.998 20.0795C16.1584 20.6189 16.1292 21.198 15.9155 21.7181C15.7019 22.2382 15.3169 22.6672 14.8261 22.9319C14.3354 23.1966 13.7693 23.2807 13.2242 23.1698C12.6792 23.059 12.1889 22.7601 11.8369 22.324C11.485 21.8879 11.2931 21.3417 11.2939 20.7783C11.294 20.4577 11.3565 20.1403 11.4779 19.8442C11.5993 19.5481 11.7771 19.2793 12.0013 19.0531V19.0564Z" fill="#006491"></path><path d="M15.0762 30.1277V28.7878H14.6002V28.4829H15.896V28.7911H15.4233V30.1311L15.0762 30.1277Z" fill="#F8F8F8"></path></svg>